<svg xmlns="http://www.w3.org/2000/svg" viewBox="0 0 1000 640">
<rect width="1000" height="640" fill="#fdfcf9"/>
<text x="20" y="30" font-family="Consolas,Menlo,monospace" font-size="13" fill="#2a2d31" text-anchor="start" font-weight="600">TILT LINKAGE — REAR MOUNT (HIDDEN), 28 mm FRAME</text>
<text x="20" y="48" font-family="Consolas,Menlo,monospace" font-size="10.5" fill="#6d6a61" text-anchor="start">MG90D + stock 20 mm horn · slat-hook crank pin 26 mm @ −10° · M2 pushrod 58 mm hole-to-hole · servo axis (+23, −47)</text>
<line x1="209.6" y1="67.0" x2="209.6" y2="587.0" stroke="#6d6a61" stroke-width="1" stroke-linecap="round" opacity="0.55" stroke-dasharray="6 4"/>
<text x="214" y="579" font-family="Consolas,Menlo,monospace" font-size="9" fill="#6d6a61" text-anchor="start">window side</text>
<rect x="53.6" y="457.0" width="72.8" height="130.0" fill="#d9b98c" stroke="#b08d5b" stroke-width="1.2" opacity=".6"/>
<text x="90" y="581" font-family="Consolas,Menlo,monospace" font-size="9" fill="#b08d5b" text-anchor="middle">rail</text>
<polygon points="84.8,437.5 84.8,242.5 95.2,242.5 95.2,437.5" fill="#d9b98c" stroke="#b08d5b" stroke-width="1.2"/>
<circle cx="90.0" cy="340.0" r="2.2" fill="none" stroke="#2a2d31" stroke-width="1.4"/>
<polygon points="84.8,273.7 84.8,78.7 95.2,78.7 95.2,273.7" fill="#d9b98c" stroke="#b08d5b" stroke-width="1.2"/>
<circle cx="90.0" cy="176.2" r="2.2" fill="none" stroke="#2a2d31" stroke-width="1.4"/>
<line x1="90.0" y1="259.4" x2="90.0" y2="51.4" stroke="#2a2d31" stroke-width="3.2" stroke-linecap="round" opacity="0.75"/>
<circle cx="90.0" cy="246.4" r="2.6" fill="#fdfcf9" stroke="#2a2d31" stroke-width="1.4"/>
<circle cx="90.0" cy="82.6" r="2.6" fill="#fdfcf9" stroke="#2a2d31" stroke-width="1.4"/>
<text x="98" y="75" font-family="Consolas,Menlo,monospace" font-size="9" fill="#6d6a61" text-anchor="start">tilt rod</text>
<line x1="90.0" y1="273.4" x2="101.7" y2="273.4" stroke="#4a7c59" stroke-width="3.2" stroke-linecap="round" opacity="1"/>
<circle cx="101.7" cy="273.4" r="3.4" fill="#fdfcf9" stroke="#4a7c59" stroke-width="2"/>
<text x="110" y="289" font-family="Consolas,Menlo,monospace" font-size="9" fill="#4a7c59" text-anchor="start">slat hook pin</text>
<line x1="162.0" y1="411.7" x2="101.7" y2="273.4" stroke="#3d6a8a" stroke-width="2.6" stroke-linecap="round" opacity="1"/>
<circle cx="162.0" cy="411.7" r="3.4" fill="#fdfcf9" stroke="#3d6a8a" stroke-width="2"/>
<rect x="133.9" y="448.7" width="31.7" height="59.3" fill="#b3541e" fill-opacity=".14" stroke="#b3541e" stroke-width="1.4"/>
<line x1="149.8" y1="462.2" x2="162.0" y2="411.7" stroke="#b3541e" stroke-width="4" stroke-linecap="round" opacity="1"/>
<circle cx="149.8" cy="462.2" r="2.8" fill="#b3541e" stroke="#b3541e" stroke-width="1.4"/>
<text x="126" y="522" font-family="Consolas,Menlo,monospace" font-size="9" fill="#b3541e" text-anchor="start">MG90D</text>
<text x="155" y="584" font-family="Consolas,Menlo,monospace" font-size="10.5" fill="#2a2d31" text-anchor="middle" font-weight="600">CLOSED — slats +90° (rear edge up)</text>
<line x1="90.0" y1="340.0" x2="149.8" y2="340.0" stroke="#6d6a61" stroke-width="0.8" stroke-linecap="round" opacity="1" stroke-dasharray="2 3"/>
<line x1="149.8" y1="340.0" x2="149.8" y2="462.2" stroke="#6d6a61" stroke-width="0.8" stroke-linecap="round" opacity="1" stroke-dasharray="2 3"/>
<text x="114" y="334" font-family="Consolas,Menlo,monospace" font-size="9" fill="#6d6a61" text-anchor="start">23</text>
<text x="156" y="404" font-family="Consolas,Menlo,monospace" font-size="9" fill="#6d6a61" text-anchor="start">47</text>
<text x="74" y="343" font-family="Consolas,Menlo,monospace" font-size="9" fill="#6d6a61" text-anchor="end">pivot</text>
<line x1="539.6" y1="67.0" x2="539.6" y2="587.0" stroke="#6d6a61" stroke-width="1" stroke-linecap="round" opacity="0.55" stroke-dasharray="6 4"/>
<rect x="383.6" y="457.0" width="72.8" height="130.0" fill="#d9b98c" stroke="#b08d5b" stroke-width="1.2" opacity=".6"/>
<polygon points="341.4,398.0 492.0,274.0 498.6,282.0 348.0,406.0" fill="#d9b98c" stroke="#b08d5b" stroke-width="1.2"/>
<circle cx="420.0" cy="340.0" r="2.2" fill="none" stroke="#2a2d31" stroke-width="1.4"/>
<polygon points="341.4,234.2 492.0,110.2 498.6,118.2 348.0,242.2" fill="#d9b98c" stroke="#b08d5b" stroke-width="1.2"/>
<circle cx="420.0" cy="176.2" r="2.2" fill="none" stroke="#2a2d31" stroke-width="1.4"/>
<line x1="492.3" y1="293.5" x2="492.3" y2="85.5" stroke="#2a2d31" stroke-width="3.2" stroke-linecap="round" opacity="0.75"/>
<circle cx="492.3" cy="280.5" r="2.6" fill="#fdfcf9" stroke="#2a2d31" stroke-width="1.4"/>
<circle cx="492.3" cy="116.7" r="2.6" fill="#fdfcf9" stroke="#2a2d31" stroke-width="1.4"/>
<line x1="471.4" y1="297.7" x2="478.9" y2="306.7" stroke="#4a7c59" stroke-width="3.2" stroke-linecap="round" opacity="1"/>
<circle cx="478.9" cy="306.7" r="3.4" fill="#fdfcf9" stroke="#4a7c59" stroke-width="2"/>
<line x1="530.0" y1="448.6" x2="478.9" y2="306.7" stroke="#3d6a8a" stroke-width="2.6" stroke-linecap="round" opacity="1"/>
<circle cx="530.0" cy="448.6" r="3.4" fill="#fdfcf9" stroke="#3d6a8a" stroke-width="2"/>
<text x="511" y="378" font-family="Consolas,Menlo,monospace" font-size="9" fill="#3d6a8a" text-anchor="start">M2 pushrod</text>
<rect x="463.9" y="448.7" width="31.7" height="59.3" fill="#b3541e" fill-opacity=".14" stroke="#b3541e" stroke-width="1.4"/>
<line x1="479.8" y1="462.2" x2="530.0" y2="448.6" stroke="#b3541e" stroke-width="4" stroke-linecap="round" opacity="1"/>
<circle cx="479.8" cy="462.2" r="2.8" fill="#b3541e" stroke="#b3541e" stroke-width="1.4"/>
<text x="485" y="584" font-family="Consolas,Menlo,monospace" font-size="10.5" fill="#2a2d31" text-anchor="middle" font-weight="600">MID — slats +45°</text>
<line x1="869.6" y1="67.0" x2="869.6" y2="587.0" stroke="#6d6a61" stroke-width="1" stroke-linecap="round" opacity="0.55" stroke-dasharray="6 4"/>
<rect x="713.6" y="457.0" width="72.8" height="130.0" fill="#d9b98c" stroke="#b08d5b" stroke-width="1.2" opacity=".6"/>
<polygon points="652.5,334.8 847.5,334.8 847.5,345.2 652.5,345.2" fill="#d9b98c" stroke="#b08d5b" stroke-width="1.2"/>
<circle cx="750.0" cy="340.0" r="2.2" fill="none" stroke="#2a2d31" stroke-width="1.4"/>
<polygon points="652.5,171.0 847.5,171.0 847.5,181.4 652.5,181.4" fill="#d9b98c" stroke="#b08d5b" stroke-width="1.2"/>
<circle cx="750.0" cy="176.2" r="2.2" fill="none" stroke="#2a2d31" stroke-width="1.4"/>
<line x1="843.6" y1="353.0" x2="843.6" y2="145.0" stroke="#2a2d31" stroke-width="3.2" stroke-linecap="round" opacity="0.75"/>
<circle cx="843.6" cy="340.0" r="2.6" fill="#fdfcf9" stroke="#2a2d31" stroke-width="1.4"/>
<circle cx="843.6" cy="176.2" r="2.6" fill="#fdfcf9" stroke="#2a2d31" stroke-width="1.4"/>
<line x1="816.6" y1="340.0" x2="816.6" y2="351.7" stroke="#4a7c59" stroke-width="3.2" stroke-linecap="round" opacity="1"/>
<circle cx="816.6" cy="351.7" r="3.4" fill="#fdfcf9" stroke="#4a7c59" stroke-width="2"/>
<line x1="845.9" y1="499.7" x2="816.6" y2="351.7" stroke="#3d6a8a" stroke-width="2.6" stroke-linecap="round" opacity="1"/>
<circle cx="845.9" cy="499.7" r="3.4" fill="#fdfcf9" stroke="#3d6a8a" stroke-width="2"/>
<rect x="793.9" y="448.7" width="31.7" height="59.3" fill="#b3541e" fill-opacity=".14" stroke="#b3541e" stroke-width="1.4"/>
<line x1="809.8" y1="462.2" x2="845.9" y2="499.7" stroke="#b3541e" stroke-width="4" stroke-linecap="round" opacity="1"/>
<circle cx="809.8" cy="462.2" r="2.8" fill="#b3541e" stroke="#b3541e" stroke-width="1.4"/>
<text x="815" y="584" font-family="Consolas,Menlo,monospace" font-size="10.5" fill="#2a2d31" text-anchor="middle" font-weight="600">OPEN — slats 0°</text>
<text x="20" y="612" font-family="Consolas,Menlo,monospace" font-size="10" fill="#6d6a61" text-anchor="start">Servo cradle sits flat on the rail's rear (window-side) face — nothing visible from the room. ~122° servo sweep drives the full 90° slat travel.</text>
<text x="20" y="627" font-family="Consolas,Menlo,monospace" font-size="10" fill="#6d6a61" text-anchor="start">Interactive simulator + full design doc: tilt-linkage-design.html (live via GitHub Pages).</text>
</svg>